<?xml version="1.0" encoding="UTF-8"?>
<svg width="35px" height="24px" viewBox="0 0 35 24" version="1.1" xmlns="http://www.w3.org/2000/svg" xmlns:xlink="http://www.w3.org/1999/xlink">
    <!-- Generator: Sketch 47.1 (45422) - http://www.bohemiancoding.com/sketch -->
    <title>prophet-logo</title>
    <desc>Created with Sketch.</desc>
    <defs></defs>
    <g id="Page-1" stroke="none" stroke-width="1" fill="none" fill-rule="evenodd">
        <g id="prophet-logo" transform="translate(1.000000, 0.000000)" fill-rule="nonzero" fill="#FEFEFE">
            <g id="Group">
                <g>
                    <path d="M16.774328,15.8008923 C16.1614584,15.8008923 15.6627508,16.2990536 15.6627508,16.9108308 C15.6627508,17.5237003 16.1614584,18.0224079 16.774328,18.0224079 C17.3877438,18.0224079 17.8864514,17.5237003 17.8864514,16.9108308 C17.8864514,16.2990536 17.3877438,15.8008923 16.774328,15.8008923 M16.774328,19.0826396 C15.5769927,19.0826396 14.6030654,18.1087122 14.6030654,16.9108308 C14.6030654,15.714588 15.5769927,14.7412069 16.774328,14.7412069 C17.9716632,14.7412069 18.9461368,15.714588 18.9461368,16.9108308 C18.9461368,18.1087122 17.9716632,19.0826396 16.774328,19.0826396" id="Fill-1"></path>
                    <path d="M12.1076156,17.3329023 L12.1076156,17.3329023 C11.8738293,17.3329023 11.6853801,17.1439069 11.6853801,16.9112131 C11.6864726,12.5419227 13.3874315,8.43536875 16.4758135,5.34698672 C16.6407748,5.18147915 16.9078811,5.18147915 17.0728424,5.34698672 C17.2378038,5.51140182 17.2378038,5.77905431 17.0728424,5.94346942 C14.1445057,8.87289864 12.5309435,12.7680618 12.5293048,16.9112131 C12.5293048,17.1439069 12.3403094,17.3329023 12.1076156,17.3329023" id="Fill-3" stroke="#FFFFFF" stroke-width="0.4"></path>
                    <path d="M21.4412589,17.3329023 C21.2080188,17.3329023 21.0190234,17.1439069 21.0190234,16.9112131 C21.0190234,12.7680618 19.4054612,8.87289864 16.476032,5.94401565 C16.3105244,5.77905431 16.3105244,5.51140182 16.4754858,5.34698672 C16.6409933,5.18202538 16.9080996,5.18202538 17.0725147,5.34698672 C20.1625354,8.43536875 21.8634943,12.5419227 21.8634943,16.9112131 C21.8634943,17.1439069 21.6744989,17.3329023 21.4412589,17.3329023" id="Fill-5" stroke="#FFFFFF" stroke-width="0.4"></path>
                    <path d="M13.2438277,23.2523377 C13.1744566,23.2523377 13.103993,23.2354045 13.0389916,23.1988072 C9.23996492,21.0854449 4.68987253,20.669218 0.556553317,22.0571873 C0.427096907,22.1008857 0.286169676,22.0790365 0.175831301,21.9998332 C0.0654929264,21.92063 -5.46229578e-05,21.7928122 -5.46229578e-05,21.6573473 L-5.46229578e-05,1.81228049 C-5.46229578e-05,1.63093227 0.115746048,1.46979455 0.287262135,1.41244044 C6.22040781,-0.582389976 12.6517149,0.925203659 17.0728971,5.34693209 C17.2378584,5.5113472 17.2378584,5.77899969 17.0728971,5.94396102 C16.9079357,6.10892236 16.6408295,6.10892236 16.4758681,5.94396102 C12.3534735,1.82265886 6.39028521,0.370780638 0.844416305,2.11926152 L0.844416305,21.0810751 C5.05202274,19.8334867 9.61358595,20.326732 13.44921,22.4613972 C13.6534999,22.575013 13.7261484,22.8317409 13.6130789,23.0360307 C13.5360606,23.1742268 13.3918559,23.2523377 13.2438277,23.2523377" id="Fill-7" stroke="#FFFFFF" stroke-width="0.4"></path>
                    <path d="M20.305593,23.2523377 C20.1570185,23.2523377 20.0133601,23.1742268 19.9363418,23.0360307 C19.8232722,22.8317409 19.8959208,22.575013 20.0996644,22.4613972 C23.936381,20.3272783 28.4984904,19.834033 32.7050044,21.0810751 L32.7050044,2.11926152 C27.1602279,0.370780638 21.1959472,1.82211263 17.0730063,5.94396102 C16.908045,6.10892236 16.6414849,6.10892236 16.4754312,5.94396102 C16.3110161,5.77899969 16.3110161,5.5113472 16.4759774,5.34693209 C20.8982521,0.925203659 27.3295591,-0.582389976 33.2616123,1.41244044 C33.4336746,1.46979455 33.5494753,1.63093227 33.5494753,1.81228049 L33.5494753,21.6573473 C33.5494753,21.7933585 33.4839278,21.92063 33.3735894,21.9998332 C33.2627048,22.0790365 33.1212313,22.1008857 32.9928674,22.0571873 C28.8595482,20.669218 24.3094558,21.0854449 20.510429,23.1988072 C20.4454277,23.2354045 20.3749641,23.2523377 20.305593,23.2523377" id="Fill-10" stroke="#FFFFFF" stroke-width="0.4"></path>
                    <path d="M12.1689572,17.3329023 L12.1684109,17.3329023 C11.9351709,17.3329023 11.7461755,17.1433607 11.7467217,16.9106669 C11.7494528,14.1380055 14.0059272,11.8831698 16.7758574,11.8831698 C19.5474263,11.8831698 21.8039007,14.1380055 21.8066318,16.9106669 C21.8066318,17.1433607 21.6176364,17.3329023 21.3843964,17.3329023 C21.1511563,17.3329023 20.9621609,17.1439069 20.9621609,16.9112131 C20.959976,14.6044856 19.0820387,12.7276408 16.7758574,12.7276408 C14.4707686,12.7276408 12.5933775,14.6044856 12.5906464,16.9117593 C12.5906464,17.1439069 12.401651,17.3329023 12.1689572,17.3329023" id="Fill-13" stroke="#FFFFFF" stroke-width="0.4"></path>
                    <path d="M16.775912,21.9443909 C15.2901676,21.9443909 13.8907274,21.2801758 12.9370106,20.1210766 C12.7884361,19.9413671 12.8146551,19.6753533 12.9943647,19.5267788 C13.1740742,19.3787506 13.4406342,19.4049696 13.5886625,19.5846792 C14.3817878,20.5476819 15.5436181,21.09992 16.775912,21.09992 C18.008206,21.09992 19.1700363,20.5476819 19.9637079,19.5846792 C20.1117361,19.4049696 20.3777499,19.3787506 20.5580056,19.5267788 C20.7382614,19.6753533 20.7639342,19.9413671 20.6153598,20.1216228 C19.6610967,21.2801758 18.2616565,21.9443909 16.775912,21.9443909" id="Fill-15" stroke="#FFFFFF" stroke-width="0.4"></path>
                </g>
            </g>
        </g>
    </g>
</svg>